<svg width="182" height="182" viewBox="0 0 182 182" fill="none" xmlns="http://www.w3.org/2000/svg">
  <path d="M 24.818,49.6364 V 165.455 H 140.637 V 182 H 24.818 c -9.1,0 -16.5455,-7.445 -16.5455,-16.545 V 49.6364 H 24.818 M 157.181,16.5455 c 9.1,0 16.546,7.4454 16.546,16.5454 v 99.2731 c 0,9.1 -7.446,16.545 -16.546,16.545 H 57.9089 c -9.1,0 -16.5455,-7.445 -16.5455,-16.545 V 33.0909 c 0,-9.1 7.4455,-16.5454 16.5455,-16.5454 H 84.2161 C 87.6907,6.94909 96.7907,0 107.545,0 118.3,0 127.4,6.94909 130.875,16.5455 h 26.306 m -49.636,0 c -4.55,0 -8.2725,3.7227 -8.2725,8.2727 0,4.55 3.7225,8.2727 8.2725,8.2727 4.55,0 8.272,-3.7227 8.272,-8.2727 0,-4.55 -3.721,-8.2727 -8.272,-8.2727 M 74.4543,49.6364 V 33.0909 H 57.9089 V 132.364 H 157.181 V 33.0909 h -16.545 v 16.5455 z" fill="white" />
</svg>
